<svg xmlns="http://www.w3.org/2000/svg" viewBox="0 0 1200 900" width="1200" height="900" role="img" aria-label="فيلا في راوندوز">
  <defs>
    <linearGradient id="g02" x1="0" y1="0" x2="1" y2="1">
      <stop offset="0" stop-color="hsl(22 30% 88%)"/>
      <stop offset="1" stop-color="hsl(22 26% 75%)"/>
    </linearGradient>
    <pattern id="p02" width="120" height="120" patternUnits="userSpaceOnUse">
      <path d="M0 0H120V120" fill="none" stroke="hsl(24 22% 34% / .13)" stroke-width="1"/>
    </pattern>
  </defs>
  <rect width="1200" height="900" fill="url(#g02)"/>
  <rect width="1200" height="900" fill="url(#p02)"/>
  <g fill="none" stroke="hsl(24 24% 26% / .55)" stroke-width="2.5">
    <path d="M253 720V329l194 -108l195 108V720"/>
    <path d="M660 720V437l143 -87l144 87V720"/>
    <path d="M120 720h960"/>
    <path d="M630 610h347"/>
  </g>
  <g fill="hsl(24 24% 26% / .26)">
    <rect x="287" y="375" width="62" height="82"/><rect x="375" y="375" width="62" height="82"/><rect x="463" y="375" width="62" height="82"/><rect x="287" y="487" width="62" height="82"/><rect x="375" y="487" width="62" height="82"/><rect x="463" y="487" width="62" height="82"/>
    <rect x="692" y="487" width="54" height="70"/><rect x="770" y="487" width="54" height="70"/><rect x="848" y="487" width="54" height="70"/><rect x="926" y="487" width="54" height="70"/><rect x="692" y="585" width="54" height="70"/><rect x="770" y="585" width="54" height="70"/><rect x="848" y="585" width="54" height="70"/><rect x="926" y="585" width="54" height="70"/>
  </g>
  <text x="600" y="828" text-anchor="middle" font-family="Tahoma, Arial, sans-serif" font-size="40"
        fill="hsl(24 24% 26% / .62)" direction="rtl">فيلا في راوندوز</text>
</svg>
