<svg xmlns="http://www.w3.org/2000/svg" viewBox="0 0 1200 900" width="1200" height="900" role="img" aria-label="منزل في فيوتشر ستي">
  <defs>
    <linearGradient id="g12" x1="0" y1="0" x2="1" y2="1">
      <stop offset="0" stop-color="hsl(20 30% 88%)"/>
      <stop offset="1" stop-color="hsl(20 26% 75%)"/>
    </linearGradient>
    <pattern id="p12" width="120" height="120" patternUnits="userSpaceOnUse">
      <path d="M0 0H120V120" fill="none" stroke="hsl(24 22% 34% / .13)" stroke-width="1"/>
    </pattern>
  </defs>
  <rect width="1200" height="900" fill="url(#g12)"/>
  <rect width="1200" height="900" fill="url(#p12)"/>
  <g fill="none" stroke="hsl(24 24% 26% / .55)" stroke-width="2.5">
    <path d="M63 720V421h211v299"/>
    <path d="M290 720V338h278v382"/>
    <path d="M584 720V455h235v265"/>
    <path d="M835 720V372h302v348"/>
    <path d="M120 720h960"/>
  </g>
  <g fill="hsl(24 24% 26% / .24)">
    <rect x="89" y="455" width="44" height="50"/><rect x="155" y="455" width="44" height="50"/><rect x="89" y="533" width="44" height="50"/><rect x="155" y="533" width="44" height="50"/><rect x="89" y="611" width="44" height="50"/><rect x="155" y="611" width="44" height="50"/>
    <rect x="316" y="372" width="44" height="50"/><rect x="382" y="372" width="44" height="50"/><rect x="448" y="372" width="44" height="50"/><rect x="316" y="450" width="44" height="50"/><rect x="382" y="450" width="44" height="50"/><rect x="448" y="450" width="44" height="50"/><rect x="316" y="528" width="44" height="50"/><rect x="382" y="528" width="44" height="50"/><rect x="448" y="528" width="44" height="50"/><rect x="316" y="606" width="44" height="50"/><rect x="382" y="606" width="44" height="50"/><rect x="448" y="606" width="44" height="50"/>
    <rect x="610" y="489" width="44" height="50"/><rect x="676" y="489" width="44" height="50"/><rect x="742" y="489" width="44" height="50"/><rect x="610" y="567" width="44" height="50"/><rect x="676" y="567" width="44" height="50"/><rect x="742" y="567" width="44" height="50"/>
    <rect x="861" y="406" width="44" height="50"/><rect x="927" y="406" width="44" height="50"/><rect x="993" y="406" width="44" height="50"/><rect x="1059" y="406" width="44" height="50"/><rect x="861" y="484" width="44" height="50"/><rect x="927" y="484" width="44" height="50"/><rect x="993" y="484" width="44" height="50"/><rect x="1059" y="484" width="44" height="50"/><rect x="861" y="562" width="44" height="50"/><rect x="927" y="562" width="44" height="50"/><rect x="993" y="562" width="44" height="50"/><rect x="1059" y="562" width="44" height="50"/>
  </g>
  <text x="600" y="828" text-anchor="middle" font-family="Tahoma, Arial, sans-serif" font-size="40"
        fill="hsl(24 24% 26% / .62)" direction="rtl">منزل في فيوتشر ستي</text>
</svg>
