<svg xmlns="http://www.w3.org/2000/svg" viewBox="0 0 1200 900" width="1200" height="900" role="img" aria-label="مشروع سكني في آزادي">
  <defs>
    <linearGradient id="g14" x1="0" y1="0" x2="1" y2="1">
      <stop offset="0" stop-color="hsl(24 30% 88%)"/>
      <stop offset="1" stop-color="hsl(24 26% 75%)"/>
    </linearGradient>
    <pattern id="p14" width="120" height="120" patternUnits="userSpaceOnUse">
      <path d="M0 0H120V120" fill="none" stroke="hsl(24 22% 34% / .13)" stroke-width="1"/>
    </pattern>
  </defs>
  <rect width="1200" height="900" fill="url(#g14)"/>
  <rect width="1200" height="900" fill="url(#p14)"/>
  <g fill="none" stroke="hsl(24 24% 26% / .55)" stroke-width="2.5">
    <path d="M64 720V303h293v417"/>
    <path d="M373 720V420h250v300"/>
    <path d="M639 720V337h207v383"/>
    <path d="M862 720V454h274v266"/>
    <path d="M120 720h960"/>
  </g>
  <g fill="hsl(24 24% 26% / .24)">
    <rect x="90" y="337" width="44" height="50"/><rect x="156" y="337" width="44" height="50"/><rect x="222" y="337" width="44" height="50"/><rect x="90" y="415" width="44" height="50"/><rect x="156" y="415" width="44" height="50"/><rect x="222" y="415" width="44" height="50"/><rect x="90" y="493" width="44" height="50"/><rect x="156" y="493" width="44" height="50"/><rect x="222" y="493" width="44" height="50"/><rect x="90" y="571" width="44" height="50"/><rect x="156" y="571" width="44" height="50"/><rect x="222" y="571" width="44" height="50"/>
    <rect x="399" y="454" width="44" height="50"/><rect x="465" y="454" width="44" height="50"/><rect x="531" y="454" width="44" height="50"/><rect x="399" y="532" width="44" height="50"/><rect x="465" y="532" width="44" height="50"/><rect x="531" y="532" width="44" height="50"/><rect x="399" y="610" width="44" height="50"/><rect x="465" y="610" width="44" height="50"/><rect x="531" y="610" width="44" height="50"/>
    <rect x="665" y="371" width="44" height="50"/><rect x="731" y="371" width="44" height="50"/><rect x="665" y="449" width="44" height="50"/><rect x="731" y="449" width="44" height="50"/><rect x="665" y="527" width="44" height="50"/><rect x="731" y="527" width="44" height="50"/><rect x="665" y="605" width="44" height="50"/><rect x="731" y="605" width="44" height="50"/>
    <rect x="888" y="488" width="44" height="50"/><rect x="954" y="488" width="44" height="50"/><rect x="1020" y="488" width="44" height="50"/><rect x="888" y="566" width="44" height="50"/><rect x="954" y="566" width="44" height="50"/><rect x="1020" y="566" width="44" height="50"/>
  </g>
  <text x="600" y="828" text-anchor="middle" font-family="Tahoma, Arial, sans-serif" font-size="40"
        fill="hsl(24 24% 26% / .62)" direction="rtl">مشروع سكني في آزادي</text>
</svg>
